<svg width="211" height="63" viewBox="0 0 211 63" fill="none" xmlns="http://www.w3.org/2000/svg">
<rect width="211" height="63" rx="31.5" fill="white"/>
<path fill-rule="evenodd" clip-rule="evenodd" d="M23 37.0814C23.0301 39.7582 24.1063 42.3135 25.9919 44.1847C27.8775 46.0559 30.418 47.0897 33.0543 47.0589H37.926C39.2508 47.0598 40.5175 47.6105 41.4329 48.5829L44.029 51.3399C44.4397 51.7623 44.9999 52 45.5845 52C46.1691 52 46.7293 51.7623 47.14 51.3399L51.1714 47.0589L52.495 45.5595C52.7388 45.2907 53.0045 45.0431 53.2891 44.8197C55.6276 42.9532 56.9949 40.1015 57 37.0814V24.9732C56.9347 19.4006 52.4338 14.9363 46.9457 15.0007H33.0543C27.5662 14.9363 23.0653 19.4006 23 24.9732V37.0814Z" stroke="#FBB117" stroke-width="2" stroke-linecap="round" stroke-linejoin="round"/>
<path d="M49.862 35.8549C50.2539 34.8816 49.7827 33.7747 48.8094 33.3826C47.8362 32.9907 46.7292 33.4619 46.3373 34.4352L49.862 35.8549ZM45.8603 38.2003L47.0605 39.6732L47.0676 39.6674L45.8603 38.2003ZM35.0891 38.1218L33.8591 39.5699L33.8676 39.5772L35.0891 38.1218ZM34.6742 34.3526C34.298 33.373 33.1991 32.8838 32.2195 33.2597C31.2399 33.6359 30.7507 34.7349 31.1267 35.7146L34.6742 34.3526ZM34.8003 24.9C34.8003 23.8507 33.9497 23 32.9004 23C31.8511 23 31.0005 23.8507 31.0005 24.9H34.8003ZM31.0005 27.4334C31.0005 28.4828 31.8511 29.3335 32.9004 29.3335C33.9497 29.3335 34.8003 28.4828 34.8003 27.4334H31.0005ZM49.9995 24.9C49.9995 23.8507 49.1489 23 48.0996 23C47.0504 23 46.1997 23.8507 46.1997 24.9H49.9995ZM46.1997 27.4334C46.1997 28.4828 47.0504 29.3335 48.0996 29.3335C49.1489 29.3335 49.9995 28.4828 49.9995 27.4334H46.1997ZM46.3373 34.4352C45.9768 35.33 45.3977 36.1202 44.653 36.7332L47.0676 39.6674C48.3033 38.6503 49.2642 37.3395 49.862 35.8549L46.3373 34.4352ZM44.6601 36.7274C42.2229 38.7133 38.7187 38.6878 36.3106 36.6664L33.8676 39.5772C37.6725 42.7711 43.2095 42.8114 47.0605 39.6732L44.6601 36.7274ZM36.319 36.6737C35.5849 36.05 35.0192 35.252 34.6742 34.3526L31.1267 35.7146C31.7001 37.2083 32.6397 38.534 33.8591 39.5699L36.319 36.6737ZM31.0005 24.9V27.4334H34.8003V24.9H31.0005ZM46.1997 24.9V27.4334H49.9995V24.9H46.1997Z" fill="#FBB117"/>
<path d="M88.4148 29.2216H85.7557C85.6534 28.6534 85.4631 28.1534 85.1847 27.7216C84.9063 27.2898 84.5653 26.9233 84.1619 26.6222C83.7585 26.321 83.3068 26.0937 82.8068 25.9403C82.3125 25.7869 81.7869 25.7102 81.2301 25.7102C80.2244 25.7102 79.3239 25.9631 78.5284 26.4688C77.7386 26.9744 77.1136 27.7159 76.6534 28.6932C76.1989 29.6705 75.9716 30.8636 75.9716 32.2727C75.9716 33.6932 76.1989 34.892 76.6534 35.8693C77.1136 36.8466 77.7415 37.5852 78.5369 38.0852C79.3324 38.5852 80.2273 38.8352 81.2216 38.8352C81.7727 38.8352 82.2955 38.7614 82.7898 38.6136C83.2898 38.4602 83.7415 38.2358 84.1449 37.9403C84.5483 37.6449 84.8892 37.2841 85.1676 36.858C85.4517 36.4261 85.6477 35.9318 85.7557 35.375L88.4148 35.3835C88.2727 36.2415 87.9972 37.0312 87.5881 37.7528C87.1847 38.4688 86.6648 39.0881 86.0284 39.6108C85.3977 40.1278 84.6761 40.5284 83.8636 40.8125C83.0511 41.0966 82.1648 41.2386 81.2045 41.2386C79.6932 41.2386 78.3466 40.8807 77.1648 40.1648C75.983 39.4432 75.0511 38.4119 74.3693 37.071C73.6932 35.7301 73.3551 34.1307 73.3551 32.2727C73.3551 30.4091 73.696 28.8097 74.3778 27.4744C75.0597 26.1335 75.9915 25.1051 77.1733 24.3892C78.3551 23.6676 79.6989 23.3068 81.2045 23.3068C82.1307 23.3068 82.9943 23.4403 83.7955 23.7074C84.6023 23.9687 85.3267 24.3551 85.9688 24.8665C86.6108 25.3722 87.142 25.9915 87.5625 26.7244C87.983 27.4517 88.267 28.2841 88.4148 29.2216ZM96.8757 41.2642C95.6484 41.2642 94.5774 40.983 93.6626 40.4205C92.7479 39.858 92.0376 39.071 91.532 38.0597C91.0263 37.0483 90.7734 35.8665 90.7734 34.5142C90.7734 33.1562 91.0263 31.9687 91.532 30.9517C92.0376 29.9347 92.7479 29.1449 93.6626 28.5824C94.5774 28.0199 95.6484 27.7386 96.8757 27.7386C98.103 27.7386 99.174 28.0199 100.089 28.5824C101.004 29.1449 101.714 29.9347 102.219 30.9517C102.725 31.9687 102.978 33.1562 102.978 34.5142C102.978 35.8665 102.725 37.0483 102.219 38.0597C101.714 39.071 101.004 39.858 100.089 40.4205C99.174 40.983 98.103 41.2642 96.8757 41.2642ZM96.8842 39.125C97.6797 39.125 98.3388 38.9148 98.8615 38.4943C99.3842 38.0739 99.7706 37.5142 100.021 36.8153C100.276 36.1165 100.404 35.3466 100.404 34.5057C100.404 33.6705 100.276 32.9034 100.021 32.2045C99.7706 31.5 99.3842 30.9347 98.8615 30.5085C98.3388 30.0824 97.6797 29.8693 96.8842 29.8693C96.0831 29.8693 95.4183 30.0824 94.8899 30.5085C94.3672 30.9347 93.978 31.5 93.7223 32.2045C93.4723 32.9034 93.3473 33.6705 93.3473 34.5057C93.3473 35.3466 93.4723 36.1165 93.7223 36.8153C93.978 37.5142 94.3672 38.0739 94.8899 38.4943C95.4183 38.9148 96.0831 39.125 96.8842 39.125ZM105.822 41V27.9091H108.268V30.0398H108.43C108.703 29.3182 109.149 28.7557 109.768 28.3523C110.388 27.9432 111.129 27.7386 111.993 27.7386C112.868 27.7386 113.601 27.9432 114.192 28.3523C114.788 28.7614 115.229 29.3239 115.513 30.0398H115.649C115.962 29.3409 116.459 28.7841 117.141 28.3693C117.822 27.9489 118.635 27.7386 119.578 27.7386C120.766 27.7386 121.734 28.1108 122.484 28.8551C123.24 29.5994 123.618 30.7216 123.618 32.2216V41H121.07V32.4602C121.07 31.5739 120.828 30.9318 120.345 30.5341C119.862 30.1364 119.286 29.9375 118.615 29.9375C117.786 29.9375 117.141 30.1932 116.68 30.7045C116.22 31.2102 115.99 31.8608 115.99 32.6562V41H113.45V32.2983C113.45 31.5881 113.229 31.017 112.786 30.5852C112.342 30.1534 111.766 29.9375 111.055 29.9375C110.572 29.9375 110.126 30.0653 109.717 30.321C109.314 30.571 108.987 30.9205 108.737 31.3693C108.493 31.8182 108.371 32.3381 108.371 32.929V41H105.822ZM127.033 41V27.9091H129.479V30.0398H129.641C129.914 29.3182 130.36 28.7557 130.979 28.3523C131.599 27.9432 132.34 27.7386 133.204 27.7386C134.079 27.7386 134.812 27.9432 135.403 28.3523C135.999 28.7614 136.44 29.3239 136.724 30.0398H136.86C137.173 29.3409 137.67 28.7841 138.352 28.3693C139.033 27.9489 139.846 27.7386 140.789 27.7386C141.977 27.7386 142.945 28.1108 143.695 28.8551C144.451 29.5994 144.829 30.7216 144.829 32.2216V41H142.281V32.4602C142.281 31.5739 142.039 30.9318 141.556 30.5341C141.073 30.1364 140.496 29.9375 139.826 29.9375C138.996 29.9375 138.352 30.1932 137.891 30.7045C137.431 31.2102 137.201 31.8608 137.201 32.6562V41H134.661V32.2983C134.661 31.5881 134.44 31.017 133.996 30.5852C133.553 30.1534 132.977 29.9375 132.266 29.9375C131.783 29.9375 131.337 30.0653 130.928 30.321C130.525 30.571 130.198 30.9205 129.948 31.3693C129.704 31.8182 129.582 32.3381 129.582 32.929V41H127.033ZM153.886 41.2642C152.597 41.2642 151.486 40.9886 150.554 40.4375C149.628 39.8807 148.912 39.0994 148.406 38.0938C147.906 37.0824 147.656 35.8977 147.656 34.5398C147.656 33.1989 147.906 32.017 148.406 30.9943C148.912 29.9716 149.616 29.1733 150.52 28.5994C151.429 28.0256 152.491 27.7386 153.707 27.7386C154.446 27.7386 155.162 27.8608 155.855 28.1051C156.548 28.3494 157.17 28.733 157.722 29.2557C158.273 29.7784 158.707 30.4574 159.026 31.2926C159.344 32.1222 159.503 33.1307 159.503 34.3182V35.2216H149.097V33.3125H157.006C157.006 32.642 156.869 32.0483 156.597 31.5312C156.324 31.0085 155.94 30.5966 155.446 30.2955C154.957 29.9943 154.384 29.8438 153.724 29.8438C153.009 29.8438 152.384 30.0199 151.849 30.3722C151.321 30.7187 150.912 31.1733 150.622 31.7358C150.338 32.2926 150.196 32.8977 150.196 33.5511V35.0426C150.196 35.9176 150.349 36.6619 150.656 37.2756C150.969 37.8892 151.403 38.358 151.96 38.6818C152.517 39 153.168 39.1591 153.912 39.1591C154.395 39.1591 154.835 39.0909 155.233 38.9545C155.631 38.8125 155.974 38.6023 156.264 38.3239C156.554 38.0455 156.776 37.7017 156.929 37.2926L159.341 37.7273C159.148 38.4375 158.801 39.0597 158.301 39.5938C157.807 40.1222 157.185 40.5341 156.435 40.8295C155.69 41.1193 154.841 41.2642 153.886 41.2642ZM164.879 33.2273V41H162.33V27.9091H164.776V30.0398H164.938C165.239 29.3466 165.711 28.7898 166.353 28.3693C167.001 27.9489 167.816 27.7386 168.799 27.7386C169.691 27.7386 170.472 27.9261 171.143 28.3011C171.813 28.6705 172.333 29.2216 172.702 29.9545C173.072 30.6875 173.256 31.5937 173.256 32.6733V41H170.708V32.9801C170.708 32.0312 170.461 31.2898 169.967 30.7557C169.472 30.2159 168.793 29.946 167.93 29.946C167.339 29.946 166.813 30.0739 166.353 30.3295C165.898 30.5852 165.538 30.9602 165.271 31.4545C165.009 31.9432 164.879 32.5341 164.879 33.2273ZM182.785 27.9091V29.9545H175.634V27.9091H182.785ZM177.552 24.7727H180.1V37.1562C180.1 37.6506 180.174 38.0227 180.322 38.2727C180.469 38.517 180.66 38.6847 180.893 38.7756C181.131 38.8608 181.39 38.9034 181.668 38.9034C181.873 38.9034 182.052 38.8892 182.205 38.8608C182.359 38.8324 182.478 38.8097 182.563 38.7926L183.023 40.8977C182.876 40.9545 182.665 41.0114 182.393 41.0682C182.12 41.1307 181.779 41.1648 181.37 41.1705C180.7 41.1818 180.075 41.0625 179.495 40.8125C178.915 40.5625 178.447 40.1761 178.089 39.6534C177.731 39.1307 177.552 38.4744 177.552 37.6847V24.7727Z" fill="#FBB117"/>
</svg>
