<svg width="200" height="300" viewBox="0 0 200 300" fill="none" xmlns="http://www.w3.org/2000/svg">
<rect width="200" height="300" fill="#D9D9D9"/>
<path d="M169 108.711C169 96.5411 159.078 86.64 146.883 86.64C144.775 86.64 142.111 86.8145 139.512 87.4662C135.236 81.7387 128.122 78 120.91 78C116.208 78 111.668 79.4987 107.923 82.2109C104.178 79.4987 99.6385 78 94.9369 78C87.391 78 80.4875 81.84 76.4602 87.9408C74.0742 87.0832 71.5448 86.6395 68.9639 86.6395C56.7684 86.6395 46.8467 96.5411 46.8467 108.711C46.8467 118.707 53.5433 127.168 62.6934 129.873V133.347H51.6485C40.2629 133.347 31 143.236 31 155.391V176.236C31 188.391 40.2629 198.279 51.6485 198.279H62.693V199.957C62.693 212.111 72.602 222 84.782 222H129.441C141.62 222 151.53 212.111 151.53 199.957V130.288C161.501 128.152 169 119.29 169 108.711ZM51.6485 188.696C45.5582 188.696 40.6039 183.107 40.6039 176.237V155.392C40.6039 148.521 45.5582 142.932 51.6485 142.932H62.693V188.696L51.6485 188.696ZM129.441 212.416H84.7825C77.8979 212.416 72.2974 206.827 72.2974 199.957V130.528C73.7195 130.313 75.1129 129.966 76.4602 129.481C80.4875 135.582 87.391 139.423 94.9369 139.423C103.673 139.423 111.242 134.342 114.833 126.987C119.279 129.694 124.769 130.783 129.567 130.783C132.55 130.783 135.497 130.178 138.225 129.02C139.421 129.528 140.66 129.922 141.926 130.213V199.957C141.926 206.827 136.326 212.416 129.441 212.416ZM146.882 121.199C144.686 121.199 142.525 120.62 140.631 119.526C139.142 118.666 137.308 118.666 135.819 119.526C133.925 120.62 131.763 121.199 129.568 121.199C124.44 121.199 118.45 119.398 116.627 115.376C115.696 113.32 113.452 112.189 111.24 112.667C109.029 113.142 107.45 115.093 107.45 117.351C107.45 124.236 101.837 129.838 94.9369 129.838C89.6299 129.838 84.8845 126.481 83.1281 121.485C82.6359 120.085 81.5233 118.992 80.1134 118.524C79.6183 118.359 79.1067 118.279 78.5975 118.279C77.6559 118.279 76.7231 118.555 75.9219 119.091C73.8618 120.47 71.4559 121.199 68.9639 121.199C62.0638 121.199 56.4507 115.597 56.4507 108.712C56.4507 101.826 62.0638 96.224 68.9639 96.224C71.4564 96.224 73.8618 96.9527 75.9214 98.3321C77.1555 99.1578 78.7024 99.3678 80.1134 98.8994C81.5228 98.431 82.6359 97.3377 83.1281 95.9389C84.884 90.9421 89.6299 87.585 94.9369 87.585C98.523 87.585 101.943 89.1282 104.322 91.8187C105.234 92.8499 106.545 93.441 107.923 93.441C109.301 93.441 110.612 92.8499 111.524 91.8187C113.903 89.1278 117.324 87.585 120.909 87.585C125.848 87.585 131.081 90.9149 133.082 95.3309C133.641 96.5648 134.697 97.505 135.989 97.919C137.281 98.3321 138.689 98.1823 139.863 97.504C141.25 96.703 143.874 96.224 146.882 96.224C153.782 96.224 159.396 101.826 159.396 108.712C159.396 115.597 153.782 121.199 146.882 121.199Z" fill="#FBB117"/>
<path d="M127 141C124.239 141 122 143.145 122 145.79V193.21C122 195.855 124.239 198 127 198C129.761 198 132 195.855 132 193.21V145.79C132 143.145 129.761 141 127 141Z" fill="#FBB117"/>
<path d="M107.5 141C105.015 141 103 143.145 103 145.79V193.21C103 195.855 105.015 198 107.5 198C109.985 198 112 195.855 112 193.21V145.79C112 143.145 109.985 141 107.5 141Z" fill="#FBB117"/>
<path d="M87.4998 141C85.0147 141 83 143.145 83 145.79V193.21C83 195.855 85.0147 198 87.4998 198C89.9853 198 92 195.855 92 193.21V145.79C92 143.145 89.9853 141 87.4998 141Z" fill="#FBB117"/>
</svg>
