<svg width="60" height="60" viewBox="0 0 60 60" fill="none" xmlns="http://www.w3.org/2000/svg">
<circle cx="30" cy="30" r="30" fill="white"/>
<path d="M44.0615 20.6668L28.1615 36.5668C26.5782 38.1501 21.8782 38.8834 20.8282 37.8334C19.7782 36.7834 20.4948 32.0834 22.0782 30.5001L37.9949 14.5834C38.3874 14.1552 38.8625 13.811 39.3919 13.5715C39.921 13.332 40.4934 13.2021 41.0742 13.1899C41.6549 13.1777 42.2322 13.2833 42.771 13.5003C43.3099 13.7173 43.7992 14.0413 44.2094 14.4526C44.6195 14.864 44.9422 15.3541 45.1577 15.8936C45.3732 16.433 45.4774 17.0105 45.4635 17.5913C45.4497 18.172 45.3182 18.744 45.0774 19.2726C44.8364 19.8012 44.4909 20.2755 44.0615 20.6668Z" stroke="#FBB117" stroke-width="3" stroke-linecap="round" stroke-linejoin="round"/>
<path d="M29.3333 16.6667H21C19.2319 16.6667 17.5363 17.3691 16.286 18.6194C15.0358 19.8696 14.3333 21.5653 14.3333 23.3334V40.0001C14.3333 41.7682 15.0358 43.4639 16.286 44.7141C17.5363 45.9644 19.2319 46.6667 21 46.6667H39.3333C43.0167 46.6667 44.3333 43.6667 44.3333 40.0001V31.6667" stroke="#FBB117" stroke-width="3" stroke-linecap="round" stroke-linejoin="round"/>
</svg>
