<svg width="36" height="36" viewBox="0 0 60 60" fill="none" xmlns="http://www.w3.org/2000/svg">
<circle cx="30" cy="30" r="30" fill="white"/>
<path d="M38.3659 36.8676C40.6182 38.1202 41.8823 40.1882 41.6626 42.3118C41.5518 43.6185 41.6081 43.6185 39.9043 43.8362C38.8599 43.946 32.212 44 25.4533 44C17.761 44 9.73817 43.946 9.13509 43.7822C6.88278 43.1829 8.20146 39.0453 11.1676 37.0854C13.5307 35.615 18.3114 33.3293 19.63 33.0557C21.4428 32.6742 21.6626 31.5314 19.63 28.101C19.1905 27.284 18.6964 24.9425 18.6401 22.439C18.5856 18.4094 19.2995 15.6882 22.8705 14.3275C23.5298 14.1098 24.2999 14 25.0138 14C27.3768 14 29.5747 15.3066 30.5083 17.2125C31.7725 19.7718 31.1676 26.4686 29.8489 28.9181C28.256 31.6951 28.4195 32.5662 30.1795 33.0017C31.2784 33.2735 34.9056 34.9617 38.3659 36.8676ZM50.3993 33.4373C52.1575 34.3624 53.1474 36.0505 52.9821 37.6847C52.9276 38.6655 52.9276 38.7195 51.6089 38.8833C50.9496 38.993 47.4876 39.047 43.4226 39.047C42.7087 37.3589 41.3338 35.8345 39.4665 34.8554C37.3232 33.6568 34.7966 32.4059 32.8731 31.5888C34.1373 30.9895 35.2362 30.5 35.7303 30.3902C37.1034 30.0627 37.2687 29.3014 35.7303 26.5784C35.3452 25.9251 34.9056 24.0732 34.8511 22.1132C34.7966 18.9547 35.5105 16.777 38.2586 15.7439C38.8089 15.5801 39.412 15.4721 39.9623 15.4721C41.7751 15.4721 43.4788 16.453 44.1927 17.9774C45.1263 19.9913 44.6867 25.2178 43.6986 27.1777C42.4889 29.3554 42.5997 30.0087 43.9729 30.3362C44.852 30.554 47.6546 31.9146 50.401 33.439L50.3993 33.4373Z" fill="#FBB117"/>
</svg>
