<svg width="60" height="60" viewBox="0 0 60 60" fill="none" xmlns="http://www.w3.org/2000/svg">
<circle cx="30" cy="30" r="30" fill="white"/>
<path d="M29.8284 10C24.3056 10 19.8284 14.4772 19.8284 20C19.8284 21.1046 20.7239 22 21.8284 22C22.933 22 23.8284 21.1046 23.8284 20C23.8284 16.6863 26.5148 14 29.8284 14H37.8284C41.1422 14 43.8284 16.6863 43.8284 20V40C43.8284 43.3138 41.1422 46 37.8284 46H29.8284C26.5148 46 23.8284 43.3138 23.8284 40C23.8284 38.8954 22.933 38 21.8284 38C20.7239 38 19.8284 38.8954 19.8284 40C19.8284 45.5228 24.3056 50 29.8284 50H37.8284C43.3512 50 47.8284 45.5228 47.8284 40V20C47.8284 14.4772 43.3512 10 37.8284 10H29.8284Z" fill="#FBB117"/>
<path d="M31.8284 28C32.933 28 33.8284 28.8954 33.8284 30C33.8284 31.1046 32.933 32 31.8284 32V28Z" fill="#FBB117"/>
<path d="M15.2643 28C15.4423 27.7804 15.6129 27.5674 15.7743 27.364C16.2652 26.7446 16.6809 26.2008 16.9744 25.811C17.1213 25.6159 17.238 25.4589 17.3185 25.3499L17.4117 25.2233L17.4366 25.1891L17.4455 25.177C17.4455 25.1769 17.4465 25.1756 15.8284 24L17.4455 25.177C18.0947 24.2834 17.8976 23.0312 17.004 22.382C16.1104 21.7328 14.8598 21.9308 14.2105 22.8243L14.2049 22.8321L14.1844 22.8601L14.1009 22.9736C14.027 23.0737 13.9177 23.2207 13.7789 23.405C13.5011 23.7741 13.1061 24.2909 12.64 24.8788C11.6975 26.0674 10.5038 27.4962 9.41422 28.5858L8 30L9.41422 31.4142C10.5038 32.5038 11.6975 33.9326 12.64 35.1212C13.1061 35.7092 13.5011 36.226 13.7789 36.595C13.9177 36.7794 14.027 36.9264 14.1009 37.0264L14.1844 37.14L14.2049 37.168L14.2095 37.1744C14.8588 38.0678 16.1104 38.2672 17.004 37.618C17.8976 36.9688 18.0957 35.718 17.4465 34.8244L15.8284 36C17.4465 34.8244 17.4466 34.8246 17.4465 34.8244L17.4366 34.811L17.4117 34.7768L17.3185 34.6502C17.238 34.541 17.1213 34.3842 16.9744 34.189C16.6809 33.7992 16.2652 33.2554 15.7743 32.636C15.6129 32.4326 15.4423 32.2196 15.2643 32H31.8284V28H15.2643Z" fill="#FBB117"/>
</svg>
