<svg width="60" height="60" viewBox="0 0 60 60" fill="none" xmlns="http://www.w3.org/2000/svg">
<g clip-path="url(#clip0_107_111)">
<path d="M30 60C46.5685 60 60 46.5685 60 30C60 13.4315 46.5685 0 30 0C13.4315 0 0 13.4315 0 30C0 46.5685 13.4315 60 30 60Z" fill="#FBB117"/>
<path d="M47.9999 30.0034H26.9015M13 22.0811H17.9257M14.9703 30.0034H17.9257M15.9554 37.9256H17.9257M26.7162 30.973L24.9597 36.8336C24.2947 39.0522 23.9622 40.1615 24.2451 40.8238C24.4907 41.399 24.9922 41.8236 25.5978 41.969C26.2953 42.1365 27.3261 41.6184 29.3878 40.5822L44.796 32.8377C46.611 31.9255 47.5188 31.4694 47.81 30.852C48.0633 30.3149 48.0633 29.6918 47.81 29.1547C47.5188 28.5373 46.611 28.0812 44.796 27.169L29.3667 19.4141C27.3108 18.3807 26.2828 17.8641 25.5859 18.0308C24.9809 18.1757 24.4794 18.5992 24.2331 19.1733C23.9495 19.8345 24.2784 20.9415 24.9363 23.1554L26.7183 29.1519C26.819 29.4906 26.8692 29.6599 26.8891 29.8324C26.9068 29.9855 26.9066 30.14 26.8885 30.2931C26.8682 30.4656 26.8176 30.6348 26.7162 30.973Z" stroke="white" stroke-width="3" stroke-linecap="round" stroke-linejoin="round"/>
</g>
<defs>
<clipPath id="clip0_107_111">
<rect width="60" height="60" fill="white"/>
</clipPath>
</defs>
</svg>
