<svg width="61" height="60" viewBox="0 0 61 60" fill="none" xmlns="http://www.w3.org/2000/svg">
<circle cx="30.667" cy="30" r="30" fill="white"/>
<path d="M30.6669 8.13557C25.2135 8.13557 20.7517 13.6881 20.7517 20.5296C20.7517 27.3712 25.2135 32.9237 30.6669 32.9237C36.1203 32.9237 40.5822 27.3712 40.5822 20.5296C40.5822 13.6881 36.1203 8.13557 30.6669 8.13557ZM20.3055 32.9237C15.0504 33.1716 10.8364 37.4847 10.8364 42.839V47.7966H50.4974V42.839C50.4974 37.4847 46.333 33.1716 41.0284 32.9237C38.3513 35.9479 34.6826 37.8813 30.6669 37.8813C26.6513 37.8813 22.9826 35.9479 20.3055 32.9237Z" fill="#FBB117"/>
</svg>
