<svg width="60" height="60" viewBox="0 0 60 60" fill="none" xmlns="http://www.w3.org/2000/svg">
<circle cx="30" cy="30" r="30" fill="#FBB117"/>
<path d="M50.0551 17.803C50.0551 14.1447 47.0789 11.1684 43.4206 11.1684C42.7883 11.1684 41.9892 11.2209 41.2097 11.4168C39.9268 9.69511 37.7929 8.57129 35.6294 8.57129C34.2189 8.57129 32.8573 9.02178 31.7337 9.83707C30.6103 9.02178 29.2487 8.57129 27.8383 8.57129C25.5748 8.57129 23.5039 9.72557 22.2958 11.5595C21.5801 11.3016 20.8214 11.1683 20.0472 11.1683C16.3889 11.1683 13.4126 14.1447 13.4126 17.8028C13.4126 20.8077 15.4214 23.351 18.1662 24.1642V25.2085H14.853C11.4377 25.2085 8.65909 28.181 8.65909 31.8347V38.1006C8.65909 41.7542 11.4377 44.7267 14.853 44.7267H18.1661V45.2309C18.1661 48.8844 21.1385 51.857 24.7921 51.857H38.1884C41.8419 51.857 44.8145 48.8844 44.8145 45.2309V24.289C47.8056 23.6467 50.0551 20.9828 50.0551 17.803ZM14.853 41.8459C13.0261 41.8459 11.54 40.1659 11.54 38.1007V31.8348C11.54 29.7696 13.0261 28.0896 14.853 28.0896H18.1661V41.8461L14.853 41.8459ZM38.1885 48.9761H24.7923C22.7271 48.9761 21.0471 47.2961 21.0471 45.2309V24.361C21.4737 24.2962 21.8917 24.1919 22.2958 24.0463C23.5039 25.88 25.5748 27.0346 27.8383 27.0346C30.4588 27.0346 32.7294 25.5074 33.8066 23.2964C35.1402 24.1101 36.7871 24.4375 38.2264 24.4375C39.121 24.4375 40.0052 24.2559 40.8234 23.9077C41.1821 24.0604 41.5541 24.1789 41.9336 24.2664V45.2311C41.9337 47.2961 40.2537 48.9761 38.1885 48.9761ZM43.4204 21.5566C42.7617 21.5566 42.1133 21.3827 41.5452 21.0538C41.0986 20.7954 40.5483 20.7954 40.1019 21.0538C39.5336 21.3827 38.8851 21.5566 38.2266 21.5566C36.6883 21.5566 34.8917 21.0154 34.3449 19.8065C34.0653 19.1882 33.3924 18.8484 32.7289 18.9919C32.0656 19.1348 31.5919 19.7214 31.5919 20.3999C31.5919 22.4696 29.908 24.1536 27.8383 24.1536C26.2464 24.1536 24.8229 23.1444 24.296 21.6426C24.1484 21.2219 23.8146 20.8933 23.3917 20.7526C23.2432 20.7031 23.0897 20.6789 22.937 20.6789C22.6545 20.6789 22.3747 20.7618 22.1344 20.9232C21.5164 21.3375 20.7947 21.5567 20.0472 21.5567C17.9773 21.5567 16.2936 19.8728 16.2936 17.8031C16.2936 15.7333 17.9773 14.0493 20.0472 14.0493C20.7948 14.0493 21.5164 14.2684 22.1342 14.683C22.5044 14.9312 22.9684 14.9943 23.3917 14.8535C23.8145 14.7128 24.1484 14.3841 24.296 13.9636C24.8227 12.4616 26.2464 11.4525 27.8383 11.4525C28.914 11.4525 29.9401 11.9164 30.6536 12.7251C30.927 13.0351 31.3204 13.2128 31.7337 13.2128C32.1471 13.2128 32.5404 13.0351 32.814 12.7251C33.5275 11.9162 34.5537 11.4525 35.6293 11.4525C37.1108 11.4525 38.6806 12.4534 39.2806 13.7809C39.4485 14.1518 39.7652 14.4344 40.1527 14.5589C40.5404 14.683 40.9626 14.638 41.3149 14.4341C41.7308 14.1933 42.518 14.0493 43.4203 14.0493C45.4901 14.0493 47.1741 15.7333 47.1741 17.8031C47.1742 19.8726 45.4903 21.5566 43.4204 21.5566Z" fill="white"/>
<path d="M37.4322 27.5856C36.6367 27.5856 35.9918 28.2306 35.9918 29.026V43.2866C35.9918 44.0821 36.6367 44.727 37.4322 44.727C38.2278 44.727 38.8727 44.0821 38.8727 43.2866V29.026C38.8727 28.2306 38.2278 27.5856 37.4322 27.5856Z" fill="white"/>
<path d="M31.4904 27.5856C30.6949 27.5856 30.05 28.2306 30.05 29.026V43.2866C30.05 44.0821 30.6949 44.727 31.4904 44.727C32.286 44.727 32.9309 44.0821 32.9309 43.2866V29.026C32.9308 28.2306 32.286 27.5856 31.4904 27.5856Z" fill="white"/>
<path d="M25.5484 27.5856C24.7529 27.5856 24.108 28.2306 24.108 29.026V43.2866C24.108 44.0821 24.7529 44.727 25.5484 44.727C26.344 44.727 26.9889 44.0821 26.9889 43.2866V29.026C26.9889 28.2306 26.344 27.5856 25.5484 27.5856Z" fill="white"/>
</svg>
