<svg width="60" height="60" viewBox="0 0 60 60" fill="none" xmlns="http://www.w3.org/2000/svg">
<circle cx="30" cy="30" r="30" fill="white"/>
<path d="M50.0552 17.803C50.0552 14.1447 47.079 11.1685 43.4207 11.1685C42.7884 11.1685 41.9893 11.2209 41.2098 11.4168C39.9269 9.69516 37.7929 8.57134 35.6295 8.57134C34.219 8.57134 32.8574 9.02183 31.7338 9.83712C30.6104 9.02183 29.2488 8.57134 27.8384 8.57134C25.5749 8.57134 23.504 9.72562 22.2959 11.5595C21.5802 11.3017 20.8214 11.1683 20.0473 11.1683C16.389 11.1683 13.4127 14.1447 13.4127 17.8029C13.4127 20.8078 15.4215 23.351 18.1663 24.1643V25.2085H14.8531C11.4378 25.2085 8.65918 28.1811 8.65918 31.8347V38.1007C8.65918 41.7543 11.4378 44.7267 14.8531 44.7267H18.1662V45.231C18.1662 48.8845 21.1386 51.8571 24.7922 51.8571H38.1885C41.842 51.8571 44.8146 48.8845 44.8146 45.231V24.289C47.8057 23.6467 50.0552 20.9828 50.0552 17.803ZM14.8531 41.846C13.0262 41.846 11.5401 40.166 11.5401 38.1008V31.8349C11.5401 29.7697 13.0262 28.0897 14.8531 28.0897H18.1662V41.8461L14.8531 41.846ZM38.1886 48.9762H24.7924C22.7272 48.9762 21.0472 47.2962 21.0472 45.231V24.361C21.4738 24.2963 21.8918 24.1919 22.2959 24.0463C23.504 25.8801 25.5749 27.0347 27.8384 27.0347C30.4589 27.0347 32.7295 25.5074 33.8067 23.2965C35.1403 24.1102 36.7872 24.4375 38.2265 24.4375C39.1211 24.4375 40.0053 24.2559 40.8235 23.9077C41.1822 24.0605 41.5541 24.179 41.9337 24.2664V45.2311C41.9338 47.2962 40.2538 48.9762 38.1886 48.9762ZM43.4205 21.5566C42.7618 21.5566 42.1134 21.3827 41.5453 21.0538C41.0987 20.7954 40.5484 20.7954 40.102 21.0538C39.5337 21.3827 38.8851 21.5566 38.2267 21.5566C36.6884 21.5566 34.8918 21.0155 34.345 19.8065C34.0654 19.1883 33.3925 18.8484 32.729 18.992C32.0657 19.1348 31.592 19.7214 31.592 20.4C31.592 22.4697 29.9081 24.1536 27.8384 24.1536C26.2464 24.1536 24.823 23.1445 24.2961 21.6426C24.1485 21.222 23.8147 20.8933 23.3918 20.7527C23.2433 20.7031 23.0898 20.679 22.9371 20.679C22.6546 20.679 22.3748 20.7619 22.1344 20.9232C21.5165 21.3376 20.7948 21.5568 20.0473 21.5568C17.9774 21.5568 16.2936 19.8728 16.2936 17.8031C16.2936 15.7333 17.9774 14.0494 20.0473 14.0494C20.7949 14.0494 21.5165 14.2684 22.1343 14.6831C22.5045 14.9313 22.9685 14.9944 23.3918 14.8536C23.8146 14.7128 24.1485 14.3842 24.2961 13.9637C24.8228 12.4617 26.2464 11.4525 27.8384 11.4525C28.9141 11.4525 29.9402 11.9164 30.6537 12.7252C30.9271 13.0352 31.3205 13.2128 31.7338 13.2128C32.1472 13.2128 32.5405 13.0352 32.8141 12.7252C33.5276 11.9163 34.5538 11.4525 35.6294 11.4525C37.1109 11.4525 38.6807 12.4535 39.2807 13.7809C39.4486 14.1518 39.7653 14.4344 40.1528 14.5589C40.5405 14.6831 40.9627 14.638 41.315 14.4341C41.7309 14.1934 42.5181 14.0494 43.4204 14.0494C45.4902 14.0494 47.1741 15.7333 47.1741 17.8031C47.1743 19.8727 45.4904 21.5566 43.4205 21.5566Z" fill="#FBB117"/>
<path d="M37.4321 27.5855C36.6366 27.5855 35.9917 28.2306 35.9917 29.0259V43.2866C35.9917 44.0821 36.6366 44.727 37.4321 44.727C38.2277 44.727 38.8726 44.0821 38.8726 43.2866V29.0259C38.8726 28.2306 38.2277 27.5855 37.4321 27.5855Z" fill="#FBB117"/>
<path d="M31.4902 27.5855C30.6947 27.5855 30.0498 28.2306 30.0498 29.0259V43.2866C30.0498 44.0821 30.6947 44.727 31.4902 44.727C32.2858 44.727 32.9307 44.0821 32.9307 43.2866V29.0259C32.9306 28.2306 32.2858 27.5855 31.4902 27.5855Z" fill="#FBB117"/>
<path d="M25.5483 27.5855C24.7528 27.5855 24.1079 28.2306 24.1079 29.0259V43.2866C24.1079 44.0821 24.7528 44.727 25.5483 44.727C26.3439 44.727 26.9888 44.0821 26.9888 43.2866V29.0259C26.9888 28.2306 26.3439 27.5855 25.5483 27.5855Z" fill="#FBB117"/>
</svg>
