<svg width="200" height="200" viewBox="0 0 61 60" fill="none" xmlns="http://www.w3.org/2000/svg">
<circle cx="30.6667" cy="30" r="30" fill="white"/>
<path d="M30.6668 8.13557C25.2134 8.13557 20.7515 13.6881 20.7515 20.5296C20.7515 27.3712 25.2134 32.9237 30.6668 32.9237C36.1201 32.9237 40.582 27.3712 40.582 20.5296C40.582 13.6881 36.1201 8.13557 30.6668 8.13557ZM20.3053 32.9237C15.0502 33.1716 10.8362 37.4847 10.8362 42.839V47.7966H50.4973V42.839C50.4973 37.4847 46.3329 33.1716 41.0282 32.9237C38.3511 35.9479 34.6824 37.8813 30.6668 37.8813C26.6511 37.8813 22.9824 35.9479 20.3053 32.9237Z" fill="#FBB117"/>
</svg>
